<svg xmlns="http://www.w3.org/2000/svg" viewBox="0 0 128 160" x="0px" y="0px"><title>camping, bear, animal, travel, wildlife, forest, nature</title><path d="M13.929,41.958a1.322,1.322,0,1,0,1.322,1.322A1.322,1.322,0,0,0,13.929,41.958Z"/><path d="M122.547,73.459a50.6,50.6,0,0,0,4.091-19.266c0-9.482-6.249-24.956-23.467-28.722-11.887-2.6-23.9-.182-33.55,1.76-3.466.7-6.741,1.358-9.537,1.683-7.264.843-15.021.568-21.255.347-2.934-.105-5.706-.2-8.011-.172a.775.775,0,0,1-.643-.33c-1.919-2.832-5.488-5.171-9.745-3.245A4.423,4.423,0,0,0,18,30.424a22.7,22.7,0,0,0-7.26,5.4A31.113,31.113,0,0,0,6.814,42.69c-1.194,2.531-2.429,5.148-3.621,6.167A4.818,4.818,0,0,0,2.207,50a1.915,1.915,0,0,0-.38,3.784,9.669,9.669,0,0,0,.981,2.258c2.655,4.571,6.812,7.388,10.48,9.874a43.491,43.491,0,0,1,4.85,3.606,18.478,18.478,0,0,1,5.437,11.521c.262,3.444.871,12.57,1.09,15.877a6.679,6.679,0,0,0-1.78.979,2.912,2.912,0,0,0-.975,3.287,2.965,2.965,0,0,0,2.836,2.035H36.538a2.974,2.974,0,0,0,2.281-1.058c1.266-1.506,3.447-4.16,5.829-7.325l3.892,4.366a2.738,2.738,0,0,0,2.422,4.017h11.89a2.737,2.737,0,0,0,2.738-2.8c-.09-3.57-.485-11.577-2.174-16.614a155.214,155.214,0,0,0,21.2-1.616c.905,5.693,2.063,12.038,2.547,14.652a6.353,6.353,0,0,0-.841.529,3.247,3.247,0,0,0,1.931,5.854H99.272a3.208,3.208,0,0,0,2.02-.708,62.75,62.75,0,0,0,6.487-6.265l2.04,2.149a4.431,4.431,0,0,0-.46.781,2.874,2.874,0,0,0,.211,2.758,2.71,2.71,0,0,0,2.266,1.285h12.73a2.734,2.734,0,0,0,2.736-2.8C127.156,94.568,126.391,80.54,122.547,73.459ZM7.094,56.919A17.231,17.231,0,0,1,5.4,54.538c-1.236-2.127-.855-2.892-.26-3.4a13.863,13.863,0,0,0,2.892-4.1c1.692.9,2.413,3.112,2.493,4.966A5.355,5.355,0,0,1,7.094,56.919ZM24.572,73.47a21.017,21.017,0,0,0-2.645-4.237A16.836,16.836,0,0,0,25.6,66.489c.42-.38.886-.8,1.325-1.148-.042.117-.085.234-.127.348A46.809,46.809,0,0,0,24.572,73.47Zm26.9,26.753c.061-.078.1-.126.111-.137a1.5,1.5,0,0,0-.008-1.987l-5.107-5.727a97.989,97.989,0,0,0,5.509-8.424c2.912,0,5.678-.028,8.278-.074,1.83,4.337,2.241,13.2,2.33,16.349Zm47.933-.038a.208.208,0,0,1-.131.038H88.251a.209.209,0,0,1-.228-.16.238.238,0,0,1,.094-.292A3.807,3.807,0,0,1,89.3,99.2a1.5,1.5,0,0,0,1.036-1.713c-1.361-7.229-3.936-21.79-3.936-25.16a1.5,1.5,0,0,0-3,0,61.1,61.1,0,0,0,.761,6.9c-6.028,1.07-16.515,1.66-30.587,1.722a17.962,17.962,0,0,0,2.174-7.2,1.5,1.5,0,0,0-3,0c0,5.319-8.739,17.6-16.207,26.483l-11.815.049a4.126,4.126,0,0,1,1.794-.757,1.5,1.5,0,0,0,1.222-1.573c-.008-.129-.851-12.891-1.173-17.124-.008-.107-.031-.215-.041-.322a40.166,40.166,0,0,1,3.09-13.776c.73-1.994,1.17-3.2.45-4.232a2.081,2.081,0,0,0-1.807-.863h-.014c-1.739,0-3.157,1.282-4.657,2.639-1.272,1.152-2.576,2.321-3.95,2.6a52.034,52.034,0,0,0-4.666-3.427,52.389,52.389,0,0,1-5.689-4.261,8.235,8.235,0,0,0,4.242-7.3c-.119-2.771-1.309-6.109-4.162-7.548.055-.117.11-.232.166-.35A29.432,29.432,0,0,1,13,37.805a18.572,18.572,0,0,1,7.266-5.037,1.5,1.5,0,0,0,.923-2.03c-.32-.734-.472-2.059.481-2.491,3.138-1.418,5.259,1.063,6.026,2.2a3.822,3.822,0,0,0,3.168,1.647c2.223-.032,4.965.067,7.863.17,6.334.225,14.217.505,21.707-.366,2.92-.339,6.254-1.01,9.784-1.721,9.374-1.887,21.044-4.237,32.317-1.77,15.377,3.364,21.107,17.6,21.107,25.791a48.006,48.006,0,0,1-4.011,18.541,1.472,1.472,0,0,0-.206.5A77.551,77.551,0,0,1,99.4,100.185Zm12.8.038a2.832,2.832,0,0,1,.362-.421A2,2,0,0,0,112.622,97l-2.854-3.007A81.78,81.78,0,0,0,120.921,77.08c2.695,7.094,3.26,18.92,3.375,23.143Z"/><text x="0" y="143" fill="#000000" font-size="5px" font-weight="bold" font-family="'Helvetica Neue', Helvetica, Arial-Unicode, Arial, Sans-serif">Created by Victoruler</text><text x="0" y="148" fill="#000000" font-size="5px" font-weight="bold" font-family="'Helvetica Neue', Helvetica, Arial-Unicode, Arial, Sans-serif">from the Noun Project</text></svg>