<svg width="220" height="269" viewBox="0 0 220 269" fill="none" xmlns="http://www.w3.org/2000/svg">
<path d="M27.9072 138.535C27.9072 104.128 28.4199 77.6953 29.4453 59.2383H29.2744L4.83594 55.6494C3.35482 51.4339 2.21549 46.7627 1.41797 41.6357C0.620443 36.5088 0.22168 31.5527 0.22168 26.7676C0.22168 23.1217 0.50651 19.1341 1.07617 14.8047C15.0898 9.79167 34.4014 6.08887 59.0107 3.69629C83.6201 1.30371 107.318 0.107422 130.104 0.107422C147.536 0.107422 162.518 1.47461 175.051 4.20898C187.583 6.94336 198.065 13.1527 206.496 22.8369C215.041 32.4072 219.313 46.7627 219.313 65.9033C219.313 75.4736 217.263 86.639 213.161 99.3994C209.174 112.046 204.047 124.408 197.78 136.484C191.628 148.447 185.419 158.132 179.152 165.537C169.924 176.589 159.67 183.083 148.391 185.02C129.706 187.982 109.938 189.463 89.0889 189.463C88.6331 201.198 88.4622 209.629 88.5762 214.756L114.04 213.047C119.281 221.592 122.186 231.732 122.756 243.467C122.756 244.036 120.192 246.486 115.065 250.815C109.938 255.145 103.16 259.132 94.7285 262.778C86.4115 266.424 76.8411 268.247 66.0176 268.247C55.3079 268.247 46.763 265.342 40.3828 259.531C34.1165 253.607 30.9834 243.41 30.9834 228.94C29.0465 205.243 28.0781 175.164 28.0781 138.706L27.9072 138.535ZM136.086 141.44C139.048 128.908 141.498 115.635 143.435 101.621C145.485 87.4935 146.625 75.1888 146.853 64.707C146.283 63.6816 143.378 62.7702 138.137 61.9727C132.896 61.1751 126.117 60.7764 117.8 60.7764C111.989 60.7764 104.755 61.0042 96.0957 61.46C95.0703 95.8675 93.7031 123.496 91.9941 144.346L136.086 141.44Z" fill="#0D1027"/>
</svg>
